<?xml version="1.0" encoding="UTF-8"?>
<svg width="57px" height="72px" viewBox="0 0 57 72" version="1.1" xmlns="http://www.w3.org/2000/svg" xmlns:xlink="http://www.w3.org/1999/xlink">
    <!-- Generator: Sketch 61.2 (89653) - https://sketch.com -->
    <title>logo (1)</title>
    <desc>Created with Sketch.</desc>
    <g id="Page-1" stroke="none" stroke-width="1" fill="none" fill-rule="evenodd">
        <g id="Artboard" transform="translate(-278.000000, -408.000000)" fill-rule="nonzero">
            <g id="logo-(1)" transform="translate(278.000000, 408.000000)">
                <path d="M14.969,59.024 C18.7869458,63.8490354 23.2160755,68.1571506 28.145,71.84 C33.0790474,68.1678648 37.5160478,63.8713694 41.345,59.058 L28.135,46.214 L14.969,59.024 Z" id="Path" fill="#ED6D0B"></path>
                <path d="M8.824,49.838 L28.149,31.277 L47.512,49.89 C50.7951973,44.051883 53.2070456,37.7650411 54.671,31.229 C54.737,30.912 54.794,30.599 54.86,30.282 L1.453,30.282 C2.89936516,37.1381175 5.38506149,43.7329184 8.824,49.838 Z" id="Path" fill="#ED6D0B"></path>
                <path d="M8.813,49.838 C10.6200646,53.0579222 12.6795141,56.1295415 14.972,59.024 L28.137,46.214 L41.346,59.057 C43.637378,56.1695058 45.6952136,53.1041534 47.5,49.89 L28.137,31.277 L8.813,49.838 Z" id="Path" fill="#ED6D0B"></path>
                <path d="M28.138,45.865 L15,58.651 C12.8251355,55.8804624 10.8628752,52.9494406 9.13,49.883 L28.142,31.623 L47.192,49.935 C45.4611535,52.9960583 43.5001733,55.921148 41.326,58.685 L28.138,45.865 Z" id="Path" fill="#000000"></path>
                <path d="M28.137,31.97 L46.874,49.982 C45.2185725,52.889915 43.3543453,55.67389 41.296,58.312 L28.486,45.855 L28.137,45.516 L27.788,45.855 L15.021,58.278 C12.9617885,55.633344 11.0962691,52.84342 9.439,49.93 L28.139,31.97 M28.139,31.277 L8.813,49.838 C10.6200646,53.0579222 12.6795141,56.1295415 14.972,59.024 L28.137,46.214 L41.346,59.057 C43.637378,56.1695058 45.6952136,53.1041534 47.5,49.89 L28.137,31.277 L28.139,31.277 Z" id="Shape" fill="#000000"></path>
                <path d="M56.065,10.489 C53.7353021,11.1981056 51.3132243,11.5573564 48.878,11.555 C40.4240316,11.6010327 32.563253,7.21685972 28.16,-8.8817842e-15 C23.7538395,7.21632559 15.8920328,11.6000141 7.437,11.555 C5.00548402,11.5565202 2.58706906,11.1989978 0.26,10.494 C-0.321800978,17.116126 0.075806665,23.7878474 1.44,30.294 L54.847,30.294 C56.2191812,23.7873986 56.629549,17.1147096 56.065,10.489 Z" id="Path" fill="#000000"></path>
                <path d="M41.314,18.658 L41.314,16.389 L39.926,16.389 L39.926,14.789 L38.472,14.381 L38.372,14.381 L38.372,13.02 C38.372,13.02 37.872,13.62 35.572,13.62 C33.393,13.62 32.113,12.914 30.38,12.914 C29.5353123,12.8163544 28.7032605,13.1798759 28.201,13.866 L28.201,14.415 L28.144,14.415 L28.144,13.866 C27.6394595,13.1827281 26.809144,12.8199652 25.965,12.914 C24.231,12.914 22.952,13.625 20.772,13.625 C18.472,13.625 18.072,13.025 18.072,13.025 L18.072,14.456 L17.977,14.456 L16.399,14.788 L16.399,16.388 L15,16.388 L15,18.657 L16.393,18.657 L16.393,22.33 L15,22.33 L15,24.6 L16.393,24.6 L16.393,27.423 C17.8832177,27.6445712 19.3865537,27.7665084 20.893,27.788 C23.447,27.788 24.92,27.419 26.578,27.388 L26.578,28.1 C27.0687989,28.3182643 27.5998572,28.4313569 28.137,28.432 C28.6921812,28.4279482 29.2411894,28.3151569 29.753,28.1 L29.753,27.39 C31.406,27.423 32.88,27.79 35.448,27.79 C36.9501099,27.7680528 38.4490918,27.6461165 39.935,27.425 L39.935,24.6 L41.323,24.6 L41.323,22.33 L39.926,22.33 L39.926,18.658 L41.314,18.658 Z" id="Path" fill="#FFFFFF"></path>
                <path d="M38.588,14.23 L38.595,12.491 L38.173,12.936 C38.173,12.936 37.651,13.457 35.546,13.457 L32.7,13.078 L30.355,12.751 C29.5303289,12.6901412 28.7212802,12.9990307 28.147,13.594 C27.5714713,13.000923 26.7633409,12.6923841 25.939,12.751 L23.596,13.083 L20.746,13.462 C18.676,13.462 18.246,12.962 18.24,12.962 L17.811,12.436 L17.8,13.1 L17.8,14.3 L16.111,14.655 L16.111,27.7 L16.311,27.728 C17.8123841,27.9523662 19.3271037,28.0759758 20.845,28.098 C22.6646464,28.0691021 24.4815027,27.9442621 26.288,27.724 L26.288,28.316 L26.421,28.387 C26.9459725,28.6209351 27.5142638,28.742 28.089,28.742 C28.6791873,28.7384648 29.2628009,28.6177991 29.806,28.387 L29.946,28.321 L29.946,27.721 C31.757145,27.9416739 33.5786832,28.0665145 35.403,28.095 C36.9188873,28.0726072 38.4315867,27.9489988 39.931,27.725 L40.131,27.697 L40.131,14.665 L38.588,14.23 Z M28.388,14.064 C28.8492861,13.4577183 29.5978751,13.142062 30.354,13.235 L32.594,13.552 L35.55,13.941 C36.4253946,13.9949366 37.301773,13.852461 38.115,13.524 L38.115,25.858 C37.290206,26.1394467 36.4209439,26.2678874 35.55,26.237 L32.7,25.858 L30.355,25.531 C29.6461903,25.4938958 28.9478867,25.7144688 28.389,26.152 L28.388,14.064 Z M18.288,13.548 C19.0665237,13.8668057 19.9075698,14.0036168 20.747,13.948 L23.701,13.56 L25.94,13.238 C26.6957174,13.1479688 27.4429171,13.4630393 27.906,14.067 L27.906,26.157 C27.3419238,25.7150243 26.6365401,25.4929262 25.921,25.532 L23.576,25.864 L20.747,26.238 C18.677,26.238 18.247,25.738 18.241,25.738 C18.235,25.738 18.278,14.372 18.283,13.547 L18.288,13.548 Z M39.658,27.281 C38.2509484,27.4829042 36.8323342,27.5938013 35.411,27.613 C33.5159166,27.5801265 31.6239174,27.446605 29.743,27.213 L29.471,27.175 L29.471,28.004 C29.0309013,28.166275 28.5660475,28.2511937 28.097,28.255 C27.6469257,28.2513311 27.2010515,28.168047 26.78,28.009 L26.78,27.175 L26.507,27.213 C24.6307229,27.4461205 22.7434095,27.5796411 20.853,27.613 C19.4293335,27.5939828 18.0083791,27.4830856 16.599,27.281 L16.599,15.044 C16.822,15.002 17.482,14.859 17.805,14.793 L17.805,25.877 C17.923,26.133 18.43,26.72 20.747,26.72 L23.68,26.336 L25.921,26.014 C26.6830167,25.9217864 27.4374723,26.2365542 27.908,26.843 L27.977,26.805 L28.323,26.805 L28.389,26.843 C28.8502861,26.2367183 29.5988751,25.921062 30.355,26.014 L32.595,26.332 L35.551,26.72 C37.9,26.72 38.486,26.104 38.545,26.033 L38.59,14.733 C38.898,14.818 39.462,14.975 39.658,15.033 L39.658,27.281 Z" id="Shape" fill="#000000"></path>
                <path d="M21.718,15.72 C21.5584612,15.7230291 21.4147135,15.8170478 21.348,15.962 L20.571,17.691 C20.5527879,17.705021 20.5315605,17.7146075 20.509,17.719 C20.485,17.719 20.457,17.691 20.438,17.638 C20.419,17.585 20.324,17.338 20.121,16.861 L19.87,16.3 C19.78,16.091 19.709,15.954 19.685,15.911 C19.6181528,15.793547 19.4931416,15.7212928 19.358,15.722 C19.3474643,15.7068054 19.3425172,15.6884304 19.344,15.67 C19.3428152,15.6521972 19.3459009,15.634369 19.353,15.618 L19.481,15.618 C19.628,15.618 19.751,15.627 19.86,15.627 C19.988,15.627 20.201,15.613 20.343,15.613 L20.428,15.613 C20.442,15.613 20.447,15.646 20.447,15.661 C20.4480977,15.6805164 20.4446755,15.7000228 20.437,15.718 C20.342,15.727 20.129,15.718 20.129,15.856 C20.1286197,15.8948186 20.1350504,15.9334031 20.148,15.97 L20.66,17.183 L21.086,16.183 C21.1240642,16.0998692 21.1435173,16.0094295 21.143,15.918 C21.143,15.804 21.062,15.752 20.849,15.729 C20.8420982,15.7137384 20.837385,15.697579 20.835,15.681 C20.8368001,15.6597889 20.841511,15.6389265 20.849,15.619 L20.911,15.619 C21.006,15.619 21.1,15.633 21.311,15.633 C21.349,15.633 21.496,15.624 21.567,15.624 L21.714,15.624 C21.723,15.643 21.733,15.652 21.733,15.671 C21.7311743,15.6881412 21.7260826,15.7047741 21.718,15.72 L21.718,15.72 Z" id="Path" fill="#000000"></path>
                <path d="M23.883,17.657 C23.262,17.657 22.926,17.643 22.841,17.643 C22.775,17.643 22.623,17.643 22.547,17.643 C22.471,17.643 22.263,17.657 22.047,17.657 L21.924,17.657 C21.9165608,17.6425185 21.913421,17.6262053 21.915,17.61 C21.9128947,17.5910583 21.9128947,17.5719417 21.915,17.553 C22.0226458,17.551683 22.1289874,17.5292595 22.228,17.487 C22.2782076,17.3906648 22.3010354,17.2824056 22.294,17.174 C22.294,17.079 22.294,16.974 22.294,16.866 C22.294,16.71 22.294,16.52 22.294,16.293 L22.294,15.971 C22.294,15.748 22.18,15.748 21.948,15.72 C21.9430897,15.703052 21.9400713,15.6856124 21.939,15.668 C21.939,15.654 21.939,15.62 21.958,15.616 L22.072,15.616 C22.148,15.616 22.351,15.616 22.74,15.616 C23.095,15.616 23.44,15.616 23.517,15.616 C23.564,15.616 23.702,15.616 23.73,15.616 C23.777,15.616 23.796,15.616 23.796,15.663 L23.824,16.127 C23.796,16.141 23.791,16.146 23.767,16.146 C23.751432,16.1484865 23.735568,16.1484865 23.72,16.146 C23.6498389,16.0029707 23.5437013,15.8806368 23.412,15.791 C23.3584807,15.756208 23.2958279,15.7381083 23.232,15.739 C23.204,15.739 23.132,15.739 22.957,15.739 C22.815,15.739 22.744,15.739 22.725,15.739 C22.706,15.739 22.706,15.739 22.697,15.82 C22.697,15.867 22.688,15.962 22.688,16.232 L22.688,16.5 L22.759,16.5 C22.8370076,16.5011414 22.914878,16.4930859 22.991,16.476 C23.0747631,16.4515186 23.1479622,16.3997866 23.199,16.329 C23.2204715,16.2736795 23.2365462,16.2164132 23.247,16.158 C23.2673009,16.1473721 23.2901326,16.142529 23.313,16.144 C23.3312874,16.1438239 23.3492729,16.1486662 23.365,16.158 C23.365,16.243 23.346,16.4 23.346,16.599 C23.346,16.699 23.355,16.917 23.355,17.007 C23.3387422,17.0193244 23.3181175,17.0243901 23.298,17.021 C23.2790692,17.0232931 23.2599308,17.0232931 23.241,17.021 C23.222,16.846 23.194,16.727 23.047,16.666 C22.9752136,16.6358149 22.8978527,16.6211606 22.82,16.623 C22.777,16.623 22.725,16.623 22.682,16.632 L22.682,17.167 C22.676352,17.2487026 22.6858446,17.3307457 22.71,17.409 C22.7323186,17.4631848 22.7772786,17.504855 22.833,17.523 C22.8957435,17.5337028 22.9593654,17.5383907 23.023,17.537 L23.317,17.537 C23.3927788,17.5407427 23.468553,17.5295294 23.54,17.504 C23.6838071,17.3863181 23.7961645,17.2347901 23.867,17.063 C23.8867963,17.0555778 23.907874,17.0521782 23.929,17.053 C23.9503787,17.0536044 23.971436,17.0583592 23.991,17.067 L23.991,17.607 C23.992,17.652 23.959,17.657 23.883,17.657 Z" id="Path" fill="#000000"></path>
                <path d="M26.347,16.255 C26.333,16.255 26.314,16.255 26.29,16.255 C26.2526839,16.1487775 26.2015804,16.0479152 26.138,15.955 C26.0495674,15.8331095 25.909532,15.7592122 25.759,15.755 C25.712,15.755 25.598,15.755 25.559,15.755 L25.559,16.66 C25.559,16.802 25.559,16.968 25.559,17.28 C25.559,17.517 25.668,17.517 25.914,17.55 C25.9253611,17.5669373 25.9319265,17.5866335 25.933,17.607 C25.9327989,17.6252374 25.9279826,17.6431269 25.919,17.659 L25.829,17.659 C25.687,17.659 25.403,17.65 25.313,17.65 C25.251,17.65 24.939,17.664 24.792,17.664 C24.7780003,17.6484779 24.7711135,17.6278175 24.773,17.607 C24.7737684,17.5888453 24.7785496,17.5710864 24.787,17.555 C25.114,17.531 25.147,17.47 25.157,17.366 C25.166,17.3 25.166,17.03 25.166,16.755 L25.166,16.007 C25.1679745,15.9229111 25.1616101,15.8388335 25.147,15.756 C25.0404333,15.7519399 24.9337502,15.7599914 24.829,15.78 C24.6382642,15.8705678 24.4904324,16.0320345 24.417,16.23 C24.3997477,16.2323705 24.3822523,16.2323705 24.365,16.23 C24.3471745,16.2316949 24.3296398,16.2246064 24.318,16.211 L24.318,15.685 C24.318,15.638 24.318,15.623 24.379,15.623 C24.44,15.623 24.502,15.623 24.602,15.623 C24.673,15.623 24.972,15.623 25.346,15.623 C25.839,15.623 26.203,15.609 26.298,15.609 C26.345,15.609 26.379,15.609 26.398,15.628 C26.4004121,15.6532759 26.4004121,15.6787241 26.398,15.704 L26.398,16.23 C26.3868007,16.2469758 26.3672784,16.2565456 26.347,16.255 Z" id="Path" fill="#000000"></path>
                <path d="M21.618,19.462 C21.599,19.462 21.585,19.462 21.556,19.462 C21.5226327,19.3541361 21.4712394,19.252702 21.404,19.162 C21.3165168,19.0390197 21.1758958,18.9648134 21.025,18.962 C20.978,18.962 20.864,18.962 20.825,18.962 L20.825,19.862 C20.825,20.004 20.825,20.17 20.825,20.483 C20.825,20.72 20.939,20.72 21.185,20.753 C21.1952631,20.7701719 21.2001399,20.7900274 21.199,20.81 C21.2007103,20.8278265 21.1976021,20.8457852 21.19,20.862 L21.1,20.862 C20.953,20.862 20.669,20.853 20.584,20.853 C20.522,20.853 20.21,20.867 20.058,20.867 C20.0477369,20.8498281 20.0428601,20.8299726 20.044,20.81 C20.0451718,20.7923994 20.0481883,20.7749706 20.053,20.758 C20.38,20.734 20.413,20.673 20.427,20.569 C20.427,20.503 20.427,20.233 20.427,19.958 L20.427,19.2 C20.4304529,19.1160775 20.4257643,19.0320179 20.413,18.949 C20.305108,18.9449954 20.1971062,18.9530452 20.091,18.973 C19.9018327,19.0641734 19.7557802,19.2256565 19.684,19.423 C19.6650642,19.4252087 19.6459358,19.4252087 19.627,19.423 C19.6093188,19.4237849 19.5921685,19.4168517 19.58,19.404 L19.58,18.878 C19.58,18.83 19.589,18.816 19.642,18.816 C19.695,18.816 19.765,18.816 19.865,18.816 C19.941,18.816 20.239,18.816 20.614,18.816 C21.102,18.816 21.471,18.802 21.561,18.802 C21.613,18.802 21.646,18.802 21.661,18.821 C21.676,18.84 21.661,18.869 21.661,18.897 L21.661,19.423 C21.6543281,19.4425302 21.6380869,19.4572606 21.618,19.462 Z" id="Path" fill="#000000"></path>
                <path d="M23.959,20.865 C23.343,20.865 23.002,20.851 22.922,20.851 C22.842,20.851 22.704,20.851 22.622,20.851 C22.54,20.851 22.338,20.865 22.122,20.865 L21.999,20.865 C21.9900391,20.850578 21.9851975,20.833978 21.985,20.817 C21.9840848,20.7940615 21.9892602,20.7712897 22,20.751 C22.1061397,20.7506623 22.2110415,20.7281833 22.308,20.685 C22.346,20.643 22.365,20.557 22.374,20.372 C22.374,20.277 22.383,20.172 22.383,20.064 C22.383,19.908 22.383,19.718 22.383,19.491 C22.383,19.33 22.383,19.235 22.383,19.169 C22.383,18.946 22.274,18.946 22.042,18.918 C22.0335804,18.9019015 22.0288011,18.8841496 22.028,18.866 C22.028,18.852 22.037,18.819 22.052,18.814 L22.161,18.814 C22.242,18.814 22.441,18.814 22.829,18.814 C23.189,18.814 23.529,18.814 23.611,18.814 L23.819,18.814 C23.871,18.814 23.89,18.814 23.89,18.862 L23.914,19.326 C23.8976618,19.3385339 23.8775909,19.3452242 23.857,19.345 C23.8414054,19.3471256 23.8255946,19.3471256 23.81,19.345 C23.7378799,19.2022091 23.6269729,19.0826375 23.49,19 C23.4382353,18.9654368 23.3772392,18.9473123 23.315,18.948 C23.287,18.948 23.215,18.948 23.036,18.948 C22.898,18.948 22.823,18.948 22.808,18.948 C22.793,18.948 22.784,18.948 22.775,19.029 C22.775,19.076 22.775,19.171 22.775,19.441 L22.775,19.7 L22.841,19.7 C22.9190264,19.70158 22.9969493,19.693519 23.073,19.676 C23.1583279,19.651957 23.2332512,19.6002494 23.286,19.529 C23.3059331,19.4735562 23.3203365,19.4162777 23.329,19.358 C23.3496625,19.3484152 23.3722257,19.3436291 23.395,19.344 C23.4149726,19.3428601 23.4348281,19.3477369 23.452,19.358 C23.452,19.443 23.428,19.6 23.428,19.799 C23.428,19.899 23.442,20.116 23.442,20.206 C23.425503,20.2178136 23.4050929,20.2228266 23.385,20.22 C23.3644045,20.2224259 23.3435955,20.2224259 23.323,20.22 C23.304,20.045 23.281,19.926 23.129,19.865 C23.058511,19.8351661 22.9825282,19.8205147 22.906,19.822 C22.8598736,19.8225682 22.8138095,19.8255724 22.768,19.831 L22.768,20.366 C22.764219,20.4474038 22.7723037,20.5289246 22.792,20.608 C22.811,20.641 22.858,20.708 22.915,20.722 C22.977465,20.7322217 23.0407107,20.7369066 23.104,20.736 L23.404,20.736 C23.4781396,20.7396358 23.5522581,20.728416 23.622,20.703 C23.7687697,20.5870164 23.8831235,20.4351186 23.954,20.262 C23.9738102,20.2546985 23.9949314,20.2516326 24.016,20.253 C24.0357676,20.2536462 24.0551823,20.2584147 24.073,20.267 L24.073,20.807 C24.068,20.86 24.035,20.865 23.959,20.865 Z" id="Path" fill="#000000"></path>
                <path d="M25.4,20.912 C25.2350383,20.9052586 25.0734252,20.863321 24.926,20.789 C24.9019726,20.7782713 24.8762495,20.7718405 24.85,20.77 C24.794336,20.7863428 24.7426073,20.8139088 24.698,20.851 C24.650258,20.8536056 24.6049389,20.8297939 24.58,20.789 C24.58,20.746 24.618,20.618 24.618,20.538 C24.618,20.491 24.604,20.259 24.599,20.206 C24.6204041,20.1781072 24.653852,20.1621265 24.689,20.163 L24.722,20.163 C24.7780785,20.2994952 24.8411624,20.433006 24.911,20.563 C25.0270097,20.6934319 25.1915296,20.7704489 25.366,20.776 C25.4856676,20.7892768 25.6055726,20.7531608 25.698,20.676 C25.7747792,20.6182495 25.8175697,20.5259121 25.812,20.43 C25.8172114,20.3633293 25.7968294,20.2971771 25.755,20.245 C25.6989539,20.1761081 25.6253723,20.1235992 25.542,20.093 C25.452,20.05 25.134,19.97 25.021,19.908 C24.9131825,19.8622976 24.8163597,19.7941125 24.737,19.708 C24.6586237,19.5991899 24.6172598,19.4680875 24.619,19.334 C24.6215354,19.172723 24.6906602,19.0196762 24.8099845,18.9111479 C24.9293089,18.8026196 25.0882058,18.7482752 25.249,18.761 C25.4231796,18.7505981 25.595595,18.8007682 25.737,18.903 C25.7742445,18.8609829 25.8139829,18.8212445 25.856,18.784 C25.9005541,18.7790123 25.9436772,18.8015629 25.965,18.841 C25.9481652,18.9332167 25.9371434,19.0264004 25.932,19.12 C25.932,19.172 25.965,19.39 25.965,19.42 C25.9403404,19.4350766 25.912706,19.4446292 25.884,19.448 C25.8709751,19.44679 25.858184,19.4437605 25.846,19.439 C25.789,19.339 25.737,19.174 25.675,19.084 C25.5777742,18.9598645 25.4239524,18.893887 25.267,18.909 C25.1781086,18.8994923 25.089093,18.9258011 25.0196523,18.9821045 C24.9502115,19.0384078 24.9060714,19.120063 24.897,19.209 C24.897,19.38 25.035,19.46 25.148,19.509 C25.233,19.542 25.337,19.58 25.456,19.618 C25.56746,19.6521359 25.6766736,19.6932163 25.783,19.741 C25.9960692,19.8339934 26.1297069,20.0487682 26.119,20.281 C26.1109463,20.4613668 26.0296836,20.6306483 25.893984,20.7497393 C25.7582844,20.8688303 25.579886,20.9274295 25.4,20.912 L25.4,20.912 Z" id="Path" fill="#000000"></path>
                <path d="M22.443,24.077 C21.823,24.077 21.486,24.063 21.401,24.063 C21.335,24.063 21.183,24.063 21.107,24.063 C21.031,24.063 20.823,24.077 20.607,24.077 L20.484,24.077 C20.4764247,24.0622059 20.4732986,24.0455335 20.475,24.029 C20.4727731,24.0100653 20.4727731,23.9909347 20.475,23.972 C20.5826259,23.9705034 20.6889332,23.9480872 20.788,23.906 C20.8379191,23.8095616 20.8607298,23.7013835 20.854,23.593 C20.854,23.498 20.854,23.393 20.854,23.285 C20.854,23.129 20.854,22.939 20.854,22.712 L20.854,22.39 C20.854,22.167 20.74,22.167 20.508,22.139 C20.5031883,22.1220294 20.5001718,22.1046006 20.499,22.087 C20.499,22.073 20.499,22.039 20.518,22.035 L20.632,22.035 C20.708,22.035 20.912,22.035 21.3,22.035 C21.655,22.035 22,22.035 22.077,22.035 C22.125,22.035 22.262,22.035 22.29,22.035 C22.338,22.035 22.356,22.035 22.356,22.083 L22.384,22.547 C22.356,22.561 22.351,22.566 22.327,22.566 C22.3114406,22.5685922 22.2955594,22.5685922 22.28,22.566 C22.2098004,22.4229962 22.1036706,22.3006713 21.972,22.211 C21.9184554,22.1762632 21.8558198,22.1581685 21.792,22.159 C21.764,22.159 21.692,22.159 21.517,22.159 C21.375,22.159 21.304,22.159 21.285,22.159 C21.266,22.159 21.266,22.159 21.256,22.24 C21.256,22.287 21.247,22.382 21.247,22.652 L21.247,22.917 L21.318,22.917 C21.3960076,22.9181414 21.473878,22.9100859 21.55,22.893 C21.6340623,22.8685781 21.7075978,22.816857 21.759,22.746 C21.780258,22.6906863 21.796001,22.6334083 21.806,22.575 C21.8263183,22.5644205 21.8491364,22.5595803 21.872,22.561 C21.8902874,22.5608239 21.9082729,22.5656662 21.924,22.575 C21.924,22.66 21.905,22.817 21.905,23.016 C21.905,23.116 21.914,23.333 21.914,23.424 C21.8977422,23.4363244 21.8771175,23.4413901 21.857,23.438 C21.8380686,23.4402834 21.8189314,23.4402834 21.8,23.438 C21.781,23.263 21.753,23.144 21.606,23.083 C21.5338958,23.0527051 21.4561856,23.0380492 21.378,23.04 C21.332207,23.040594 21.2864771,23.0435982 21.241,23.049 L21.241,23.584 C21.235352,23.6657026 21.2448446,23.7477457 21.269,23.826 C21.2913186,23.8801848 21.3362786,23.921855 21.392,23.94 C21.4544345,23.9504763 21.5177033,23.9551629 21.581,23.954 L21.875,23.954 C21.9507711,23.9575872 22.0265153,23.9463784 22.098,23.921 C22.2416858,23.8032025 22.3540188,23.6517077 22.425,23.48 C22.4644676,23.464147 22.5085324,23.464147 22.548,23.48 L22.548,24.02 C22.552,24.072 22.519,24.077 22.443,24.077 Z" id="Path" fill="#000000"></path>
                <path d="M25.428,22.13 C25.22,22.14 25.039,22.253 25.039,22.585 L25.039,23.637 C25.039,23.68 25.058,23.978 25.058,24.092 C25.0323235,24.1088957 25.0033507,24.120144 24.973,24.125 C24.9534172,24.1180267 24.9356477,24.1067499 24.921,24.092 L23.476,22.538 L23.49,22.856 L23.49,23.429 C23.49,23.472 23.499,23.581 23.509,23.661 C23.5048243,23.7456192 23.5421394,23.8269662 23.609,23.879 C23.6905212,23.9339741 23.7857505,23.9651401 23.884,23.969 C23.8928797,23.9830903 23.8977223,23.9993474 23.898,24.016 C23.8959178,24.0346037 23.8894021,24.0524363 23.879,24.068 L23.723,24.068 C23.59,24.068 23.486,24.068 23.349,24.068 C23.259,24.068 23.131,24.077 23.041,24.077 L22.975,24.077 C22.9729573,24.0613999 22.9729573,24.0456001 22.975,24.03 C22.9744965,24.0122395 22.9775567,23.9945582 22.984,23.978 C23.106745,23.9724531 23.2231501,23.9219041 23.311,23.836 C23.3369543,23.7567088 23.3481395,23.6733282 23.344,23.59 L23.344,22.85 C23.344,22.732 23.344,22.67 23.335,22.556 C23.3369841,22.4758117 23.3119809,22.3972802 23.264,22.333 C23.234396,22.2934136 23.2008949,22.2568974 23.164,22.224 C23.0904784,22.1824397 23.0126971,22.1489133 22.932,22.124 C22.9249002,22.1091634 22.9201759,22.0933033 22.918,22.077 C22.9182011,22.0587626 22.9230174,22.0408731 22.932,22.025 L22.984,22.025 C23.027,22.025 23.249,22.034 23.42,22.034 L23.52,22.034 C23.5432077,22.0442699 23.5642487,22.0588628 23.582,22.077 L24.653,23.247 C24.734,23.337 24.838,23.455 24.895,23.531 L24.895,22.688 C24.895,22.574 24.895,22.494 24.886,22.451 C24.8803248,22.3748818 24.8592308,22.3007125 24.824,22.233 C24.791,22.181 24.592,22.152 24.488,22.133 C24.480471,22.1135969 24.4773954,22.0927507 24.479,22.072 C24.4770652,22.057732 24.4770652,22.043268 24.479,22.029 L24.541,22.029 C24.641,22.029 24.802,22.043 24.901,22.043 C25.147,22.043 25.223,22.034 25.346,22.034 L25.427,22.034 C25.4340991,22.050369 25.4371848,22.0681972 25.436,22.086 C25.4369519,22.101099 25.4342059,22.1162024 25.428,22.13 Z" id="Path" fill="#000000"></path>
                <path d="M32.179,15.71 C31.979,15.719 31.79,15.833 31.79,16.165 L31.79,17.217 C31.79,17.259 31.804,17.558 31.804,17.672 C31.7797654,17.6888414 31.752104,17.7001109 31.723,17.705 C31.709,17.705 31.695,17.691 31.666,17.672 L30.221,16.118 L30.24,16.436 L30.24,17.009 C30.24,17.052 30.249,17.161 30.254,17.241 C30.2540507,17.3247501 30.2905552,17.4043298 30.354,17.459 C30.4361171,17.5127448 30.5309968,17.5437963 30.629,17.549 C30.6378797,17.5630903 30.6427223,17.5793474 30.643,17.596 C30.6410763,17.6139578 30.6363524,17.6315037 30.629,17.648 L30.468,17.648 C30.34,17.648 30.236,17.648 30.094,17.648 C30.004,17.648 29.881,17.657 29.794,17.657 L29.728,17.657 C29.7231298,17.64175 29.7201082,17.6259704 29.719,17.61 C29.7188239,17.5917126 29.7236662,17.5737271 29.733,17.558 C29.8539948,17.5512515 29.9684211,17.5007902 30.055,17.416 C30.0833486,17.3372749 30.0945983,17.2534131 30.088,17.17 L30.088,16.43 C30.088,16.312 30.088,16.25 30.088,16.136 C30.0875921,16.0561712 30.0628213,15.9783698 30.017,15.913 C29.986653,15.8740359 29.9532111,15.8375842 29.917,15.804 C29.8438912,15.7616137 29.7660141,15.728046 29.685,15.704 C29.6810051,15.6885403 29.677999,15.6728419 29.676,15.657 C29.67669,15.6393452 29.6797163,15.6218597 29.685,15.605 L29.742,15.605 C29.78,15.605 30.003,15.614 30.173,15.614 L30.273,15.614 C30.296739,15.6254685 30.318918,15.6399185 30.339,15.657 L31.41,16.827 C31.491,16.917 31.595,17.035 31.652,17.111 L31.652,16.268 C31.6519701,16.1887943 31.6472954,16.1096584 31.638,16.031 C31.6345438,15.9545045 31.6133163,15.8798656 31.576,15.813 C31.543,15.761 31.344,15.732 31.244,15.713 C31.2348368,15.6936123 31.2300568,15.672444 31.23,15.651 C31.2292721,15.6361328 31.2323709,15.6213274 31.239,15.608 L31.3,15.608 C31.4,15.608 31.561,15.622 31.66,15.622 C31.902,15.622 31.982,15.612 32.105,15.612 L32.181,15.612 C32.1893595,15.6281219 32.1941352,15.6458603 32.195,15.664 C32.1932736,15.6803594 32.1877985,15.6961005 32.179,15.71 L32.179,15.71 Z" id="Path" fill="#000000"></path>
                <path d="M34.306,17.4 C34.1167474,17.5944113 33.8577181,17.705232 33.5864149,17.7078605 C33.3151118,17.7104891 33.0539839,17.604708 32.861,17.414 C32.4502938,16.9774091 32.4502938,16.2965909 32.861,15.86 C33.0503945,15.6655291 33.3095555,15.5546658 33.581,15.552 C33.7711116,15.555145 33.9571619,15.6075147 34.121,15.704 C34.4331058,15.9011299 34.6219647,16.2448533 34.6210037,16.614 C34.6213236,16.9068248 34.5084609,17.1884438 34.306,17.4 Z M33.974,15.9 C33.8835764,15.7641917 33.7301276,15.6838856 33.567,15.687 C33.4118066,15.6856624 33.2675471,15.766737 33.188,15.9 C33.0481153,16.1148072 32.9817875,16.3692392 32.999,16.625 C32.9845393,16.8761262 33.0473578,17.125655 33.179,17.34 C33.2611504,17.4827586 33.4143138,17.5696789 33.579,17.567 C33.7699361,17.5719265 33.9452511,17.4620099 34.024,17.288 C34.1241219,17.0833767 34.1699229,16.8564381 34.157,16.629 C34.1761408,16.3726298 34.111954,16.1169349 33.974,15.9 Z" id="Shape" fill="#000000"></path>
                <path d="M37.215,15.72 C37.0571345,15.7244457 36.91555,15.8183182 36.85,15.962 L36.073,17.691 C36.054769,17.7049895 36.0335493,17.7145726 36.011,17.719 C35.987,17.719 35.954,17.691 35.94,17.638 C35.926,17.585 35.826,17.338 35.618,16.861 L35.372,16.297 C35.282,16.088 35.211,15.951 35.187,15.908 C35.1193906,15.7913072 34.9948634,15.7193328 34.86,15.719 C34.8462326,15.7053651 34.8392661,15.6862989 34.841,15.667 C34.8394325,15.648562 34.8443873,15.6301587 34.855,15.615 L34.983,15.615 C35.125,15.615 35.248,15.624 35.357,15.624 C35.485,15.624 35.698,15.61 35.845,15.61 L35.926,15.61 C35.945,15.61 35.95,15.643 35.95,15.658 C35.9513081,15.6774343 35.9482324,15.6969142 35.941,15.715 C35.841,15.724 35.633,15.715 35.633,15.853 C35.6303048,15.8919642 35.6368135,15.9310161 35.652,15.967 L36.159,17.18 L36.59,16.18 C36.6247463,16.0959924 36.6424231,16.0059088 36.642,15.915 C36.642,15.801 36.561,15.749 36.348,15.726 C36.3427584,15.7105027 36.3397286,15.6943435 36.339,15.678 C36.3393562,15.6570351 36.3423806,15.6362009 36.348,15.616 L36.41,15.616 C36.505,15.616 36.6,15.63 36.818,15.63 C36.851,15.63 37.003,15.621 37.074,15.621 L37.221,15.621 C37.2409561,15.6513465 37.2409561,15.6906535 37.221,15.721 L37.215,15.72 Z" id="Path" fill="#000000"></path>
                <path d="M31.511,19.462 C31.492,19.462 31.478,19.462 31.449,19.462 C31.4156327,19.3541361 31.3642394,19.252702 31.297,19.162 C31.2096253,19.0388958 31.0689368,18.9646539 30.918,18.962 C30.87,18.962 30.757,18.962 30.718,18.962 L30.718,19.862 C30.718,20.004 30.718,20.17 30.718,20.483 C30.718,20.72 30.832,20.72 31.078,20.753 C31.0882631,20.7701719 31.0931399,20.7900274 31.092,20.81 C31.0937103,20.8278265 31.0906021,20.8457852 31.083,20.862 L30.993,20.862 C30.846,20.862 30.562,20.853 30.477,20.853 C30.415,20.853 30.103,20.867 29.951,20.867 C29.9407369,20.8498281 29.9358601,20.8299726 29.937,20.81 C29.9380465,20.7923847 29.9410653,20.7749423 29.946,20.758 C30.273,20.734 30.306,20.673 30.32,20.569 C30.32,20.503 30.32,20.233 30.32,19.958 L30.32,19.2 C30.3233475,19.1160783 30.3186594,19.0320289 30.306,18.949 C30.1981084,18.945012 30.0901083,18.9530617 29.984,18.973 C29.7948327,19.0641734 29.6487802,19.2256565 29.577,19.423 C29.5580647,19.4252177 29.5389353,19.4252177 29.52,19.423 C29.5023188,19.4237849 29.4851685,19.4168517 29.473,19.404 L29.473,18.878 C29.473,18.83 29.482,18.816 29.535,18.816 C29.588,18.816 29.658,18.816 29.758,18.816 C29.834,18.816 30.132,18.816 30.507,18.816 C30.995,18.816 31.364,18.802 31.454,18.802 C31.506,18.802 31.539,18.802 31.554,18.821 C31.569,18.84 31.554,18.869 31.554,18.897 L31.554,19.423 C31.5473281,19.4425302 31.5310869,19.4572606 31.511,19.462 L31.511,19.462 Z" id="Path" fill="#000000"></path>
                <path d="M33.965,20.865 L33.8,20.865 C33.7,20.865 33.577,20.851 33.454,20.851 C33.26,20.851 33.013,20.865 32.919,20.865 C32.9082267,20.8499167 32.9032558,20.8314534 32.905,20.813 C32.9056025,20.7966422 32.9086357,20.780465 32.914,20.765 C33.114,20.756 33.193,20.723 33.193,20.642 C33.1898695,20.5504611 33.1688048,20.4604264 33.131,20.377 C33.069,20.225 33.036,20.159 33.022,20.121 C33.013,20.107 33.008,20.097 32.965,20.097 L32.32,20.097 C32.2499892,20.2196731 32.1987538,20.3521436 32.168,20.49 C32.1581494,20.5285437 32.1534419,20.5682214 32.154,20.608 C32.154,20.674 32.216,20.75 32.443,20.755 C32.4532631,20.7721719 32.4581399,20.7920274 32.457,20.812 C32.4591256,20.8275946 32.4591256,20.8434054 32.457,20.859 L32.4,20.859 C32.248,20.859 32.206,20.85 32.045,20.85 C31.945,20.85 31.69,20.859 31.604,20.859 C31.5986723,20.8452542 31.5956321,20.8307286 31.595,20.816 C31.5941703,20.7982176 31.5972421,20.7804691 31.604,20.764 C31.7180171,20.7534236 31.82345,20.6989141 31.898,20.612 C32.0008906,20.4436128 32.0882505,20.2662152 32.159,20.082 C32.273,19.807 32.41,19.461 32.472,19.319 C32.557,19.139 32.586,19.082 32.614,19.019 C32.657,18.929 32.704,18.839 32.723,18.806 C32.7444422,18.7838509 32.7732605,18.7703312 32.804,18.768 C32.8389131,18.7681871 32.8719184,18.7839563 32.894,18.811 C32.9128187,18.8427588 32.928557,18.8762446 32.941,18.911 C33.06,19.195 33.154,19.446 33.301,19.797 C33.377,19.972 33.415,20.086 33.495,20.271 C33.552,20.385 33.585,20.471 33.642,20.579 C33.718,20.735 33.842,20.735 33.964,20.768 C33.964,20.782 33.983,20.796 33.983,20.815 C33.983,20.834 33.974,20.846 33.965,20.865 Z M32.671,19.24 L32.671,19.24 C32.628,19.321 32.552,19.496 32.524,19.572 C32.415,19.837 32.377,19.927 32.358,19.965 L32.969,19.965 C32.918,19.841 32.761,19.467 32.671,19.24 Z" id="Shape" fill="#000000"></path>
                <path d="M37.129,20.865 L36.3,20.856 L36.073,20.856 C36.0651494,20.8396847 36.060402,20.8220515 36.059,20.804 C36.0572661,20.7847011 36.0642326,20.7656349 36.078,20.752 C36.1451167,20.7519888 36.2120818,20.7456271 36.278,20.733 C36.363,20.695 36.396,20.61 36.396,20.487 L36.396,19.012 L36.396,19.012 L35.96,19.969 C35.913,20.069 35.86,20.187 35.808,20.301 C35.7390714,20.4520531 35.6789703,20.6069804 35.628,20.765 C35.6175803,20.791531 35.5901762,20.8073091 35.562,20.803 C35.534,20.803 35.515,20.794 35.5,20.746 C35.443,20.623 35.405,20.546 35.386,20.49 L34.704,18.99 L34.69,18.99 L34.69,19.374 L34.704,20.331 C34.704,20.625 34.856,20.762 35.088,20.762 C35.0967606,20.7765725 35.1031724,20.7924333 35.107,20.809 C35.1062316,20.8271547 35.1014504,20.8449136 35.093,20.861 C35.079,20.861 35.031,20.861 34.993,20.861 C34.955,20.861 34.813,20.847 34.593,20.847 C34.531,20.847 34.404,20.847 34.304,20.847 L34.167,20.847 C34.1613766,20.8301865 34.1580138,20.8126999 34.157,20.795 C34.1589824,20.7803857 34.1623304,20.7659894 34.167,20.752 C34.2714192,20.7337815 34.3725336,20.7000767 34.467,20.652 C34.51,20.609 34.548,20.524 34.548,20.32 L34.548,19.273 C34.548,19.107 34.524,19.041 34.448,18.984 C34.3607689,18.954524 34.269939,18.9370309 34.178,18.932 C34.1694423,18.9141724 34.1646753,18.8947636 34.164,18.875 C34.1652226,18.855316 34.1699643,18.8360106 34.178,18.818 C34.259,18.818 34.401,18.827 34.543,18.827 L35.043,18.827 C35.0619004,18.839986 35.0767943,18.8579972 35.086,18.879 L35.697,20.262 L35.806,19.987 C35.901,19.764 36.038,19.428 36.232,19.068 C36.275,18.987 36.327,18.883 36.355,18.831 L37.132,18.817 C37.1424021,18.8325637 37.1489178,18.8503963 37.151,18.869 C37.1507989,18.8872374 37.1459826,18.9051269 37.137,18.921 C37.052,18.935 36.905,18.935 36.837,19.054 C36.813,19.092 36.799,19.13 36.799,19.296 L36.799,20.286 C36.799,20.665 36.894,20.703 36.937,20.731 C37.0046398,20.7502216 37.0746851,20.7596508 37.145,20.759 C37.1539826,20.7748731 37.1587989,20.7927626 37.159,20.811 C37.144,20.841 37.134,20.846 37.129,20.865 Z" id="Path" fill="#000000"></path>
                <path d="M31.463,22.675 C31.444,22.675 31.43,22.675 31.401,22.675 C31.3676327,22.5671361 31.3162394,22.465702 31.249,22.375 C31.1615168,22.2520197 31.0208958,22.1778134 30.87,22.175 C30.823,22.175 30.709,22.175 30.67,22.175 L30.67,23.08 C30.67,23.222 30.67,23.388 30.67,23.7 C30.67,23.937 30.784,23.937 31.03,23.97 C31.0402631,23.9871719 31.0451399,24.0070274 31.044,24.027 C31.0457103,24.0448265 31.0426021,24.0627852 31.035,24.079 L30.945,24.079 C30.798,24.079 30.514,24.07 30.429,24.07 C30.367,24.07 30.055,24.084 29.903,24.084 C29.8927369,24.0668281 29.8878601,24.0469726 29.889,24.027 C29.8901718,24.0093994 29.8931883,23.9919706 29.898,23.975 C30.225,23.951 30.258,23.89 30.272,23.786 C30.272,23.72 30.272,23.45 30.272,23.175 L30.272,22.426 C30.2754529,22.3420775 30.2707643,22.2580179 30.258,22.175 C30.150108,22.1709954 30.0421062,22.1790452 29.936,22.199 C29.7465838,22.2901389 29.6002033,22.451588 29.528,22.649 C29.5090658,22.6512361 29.4899342,22.6512361 29.471,22.649 C29.4533188,22.6497849 29.4361685,22.6428517 29.424,22.63 L29.424,22.1 C29.424,22.052 29.433,22.038 29.486,22.038 C29.539,22.038 29.609,22.038 29.709,22.038 C29.785,22.038 30.083,22.038 30.458,22.038 C30.946,22.038 31.315,22.024 31.405,22.024 C31.457,22.024 31.49,22.024 31.505,22.043 C31.52,22.062 31.505,22.091 31.505,22.119 L31.505,22.645 C31.4961288,22.6607221 31.4807494,22.6717073 31.463,22.675 Z" id="Path" fill="#000000"></path>
                <path d="M34.007,22.139 C33.8491345,22.1434457 33.70755,22.2373182 33.642,22.381 L32.865,24.11 C32.8467879,24.124021 32.8255605,24.1336075 32.803,24.138 C32.779,24.138 32.746,24.11 32.732,24.057 C32.718,24.004 32.618,23.757 32.41,23.28 L32.164,22.716 C32.074,22.508 32.003,22.37 31.979,22.328 C31.9112415,22.2114565 31.7868085,22.1395364 31.652,22.139 C31.6383516,22.125289 31.6314061,22.1062803 31.633,22.087 C31.6315172,22.0685696 31.6364643,22.0501946 31.647,22.035 L31.775,22.035 C31.917,22.035 32.04,22.044 32.149,22.044 C32.277,22.044 32.49,22.03 32.637,22.03 L32.718,22.03 C32.737,22.03 32.742,22.063 32.742,22.078 C32.7433081,22.0974343 32.7402324,22.1169142 32.733,22.135 C32.633,22.144 32.425,22.135 32.425,22.272 C32.4223423,22.3109624 32.4288495,22.3500056 32.444,22.386 L32.951,23.599 L33.382,22.599 C33.4166951,22.514977 33.4343699,22.4249037 33.434,22.334 C33.434,22.22 33.353,22.168 33.14,22.145 C33.1346357,22.129535 33.1316025,22.1133578 33.131,22.097 C33.1312313,22.0760252 33.134258,22.0551749 33.14,22.035 L33.2,22.035 C33.295,22.035 33.389,22.049 33.607,22.049 C33.64,22.049 33.792,22.04 33.863,22.04 L34.01,22.04 C34.0299561,22.0703465 34.0299561,22.1096535 34.01,22.14 L34.007,22.139 Z" id="Path" fill="#000000"></path>
                <path d="M37.172,24.077 L36.348,24.068 L36.116,24.068 C36.1092106,24.05154 36.1061375,24.0337844 36.107,24.016 C36.1036501,23.997445 36.108787,23.978365 36.121,23.964 C36.1907817,23.9643394 36.2604347,23.9579769 36.329,23.945 C36.41,23.907 36.443,23.822 36.443,23.699 L36.443,22.5 C36.443,22.5 36.443,22.282 36.443,22.221 L36.434,22.221 L36.003,23.178 C35.951,23.278 35.903,23.396 35.847,23.51 C35.752,23.733 35.695,23.884 35.667,23.974 C35.658,24.012 35.625,24.012 35.601,24.012 C35.577,24.012 35.558,24.003 35.539,23.955 C35.487,23.832 35.449,23.755 35.43,23.699 L34.743,22.199 L34.729,22.199 L34.729,22.583 L34.743,23.54 C34.743,23.834 34.895,23.971 35.131,23.971 C35.1386759,23.9856083 35.1434312,24.0015726 35.145,24.018 C35.146224,24.0358048 35.1431367,24.0536422 35.136,24.07 C35.117,24.07 35.074,24.07 35.027,24.07 C34.999,24.07 34.852,24.056 34.634,24.056 C34.568,24.056 34.44,24.056 34.345,24.056 L34.208,24.056 C34.1990174,24.0401269 34.1942011,24.0222374 34.194,24.004 C34.1956382,23.9888518 34.2004056,23.974209 34.208,23.961 C34.3122669,23.9421817 34.4132955,23.9085055 34.508,23.861 C34.572383,23.7630519 34.5993606,23.6452026 34.584,23.529 L34.584,23.046 L34.584,22.477 C34.584,22.311 34.565,22.245 34.484,22.188 C34.3983376,22.1590891 34.3092356,22.1416049 34.219,22.136 C34.2069735,22.1193968 34.2003407,22.0994984 34.2,22.079 C34.2011703,22.058652 34.2077275,22.0389806 34.219,22.022 C34.295,22.022 34.442,22.031 34.579,22.031 L35.079,22.031 C35.0963609,22.0443602 35.1095447,22.0624011 35.117,22.083 L35.728,23.466 L35.842,23.191 C35.9670564,22.8770935 36.1092709,22.5702975 36.268,22.272 C36.306,22.191 36.363,22.087 36.391,22.035 L37.163,22.021 C37.172,22.04 37.187,22.054 37.187,22.073 C37.1849178,22.0916037 37.1784021,22.1094363 37.168,22.125 C37.087,22.139 36.941,22.139 36.868,22.258 C36.844,22.296 36.825,22.334 36.825,22.5 L36.825,23.49 C36.825,23.869 36.92,23.907 36.967,23.935 C37.0318558,23.9544455 37.0992976,23.9638873 37.167,23.963 C37.1793202,23.9775197 37.1860572,23.9959578 37.186,24.015 C37.191,24.053 37.182,24.058 37.172,24.077 Z" id="Path" fill="#000000"></path>
            </g>
        </g>
    </g>
</svg>